<svg width="307" height="50" viewBox="0 0 307 50" fill="none" xmlns="http://www.w3.org/2000/svg">
<g clip-path="url(#clip0_2602_123)">
<g clip-path="url(#clip1_2602_123)">
<g clip-path="url(#clip2_2602_123)">
<path d="M157.135 25.8187L149.389 36.3412L144.537 32.4384L152.369 21.7449L139.857 17.6721L141.899 11.8159L153.985 15.7197V2.82031H160.284V15.7197L172.37 11.8159L174.413 17.6721L161.986 21.7449L169.817 32.4384L164.881 36.3412L157.135 25.8187Z" fill="#FF4800"/>
</g>
</g>
</g>
<g clip-path="url(#clip3_2602_123)">
<g clip-path="url(#clip4_2602_123)">
<g clip-path="url(#clip5_2602_123)">
<path d="M157.135 25.8187L149.389 36.3412L144.537 32.4384L152.369 21.7449L139.857 17.6721L141.899 11.8159L153.985 15.7197V2.82031H160.284V15.7197L172.37 11.8159L174.413 17.6721L161.986 21.7449L169.817 32.4384L164.881 36.3412L157.135 25.8187Z" fill="#FF4800"/>
</g>
</g>
</g>
<path d="M4.2 37V3.76923H8.58462L27.0462 23.1077V30.4L8.07692 10.5538L9.55385 9.95384V37H4.2ZM24.7846 37V3.76923H30.1385V37H24.7846ZM45.0065 37.5538C41.3142 37.5538 38.5296 36.9077 36.6526 35.6154C34.7757 34.3231 33.8373 32.3077 33.8373 29.5692C33.8373 27.7846 34.2834 26.3077 35.1757 25.1385C36.068 23.9692 37.3296 23.0923 38.9603 22.5077C40.5911 21.9231 42.4988 21.6308 44.6834 21.6308C46.2526 21.6308 47.5757 21.7692 48.6526 22.0462C49.7296 22.2923 50.6834 22.5385 51.5142 22.7846V26.4308C50.7757 26.1846 49.8373 25.9692 48.6988 25.7846C47.5911 25.5692 46.545 25.4615 45.5603 25.4615C43.2834 25.4615 41.5757 25.7692 40.4373 26.3846C39.3296 26.9692 38.7757 28.0308 38.7757 29.5692C38.7757 31.0154 39.3142 32.0615 40.3911 32.7077C41.468 33.3231 43.0219 33.6308 45.0526 33.6308C46.2219 33.6308 47.345 33.5385 48.4219 33.3538C49.4988 33.1385 50.4988 32.8308 51.4219 32.4308L50.545 33.9538C50.4526 33.6462 50.3757 33.3231 50.3142 32.9846C50.2526 32.6462 50.1911 32.3077 50.1296 31.9692C50.0988 31.6 50.068 31.2 50.0373 30.7692C50.0373 30.3385 50.0373 29.8462 50.0373 29.2923V21.8154C50.0373 20.0308 49.7757 18.6923 49.2526 17.8C48.7603 16.8769 48.0065 16.2769 46.9911 16C45.9757 15.6923 44.6988 15.5385 43.1603 15.5385C41.9296 15.5385 40.6988 15.6923 39.468 16C38.2373 16.2769 37.2526 16.5846 36.5142 16.9231H36.0988V12.5846C37.2065 12.1538 38.4373 11.8308 39.7911 11.6154C41.1757 11.4 42.5142 11.2923 43.8065 11.2923C45.4373 11.2923 46.9296 11.4308 48.2834 11.7077C49.668 11.9846 50.868 12.5077 51.8834 13.2769C52.9296 14.0154 53.7296 15.0769 54.2834 16.4615C54.868 17.8154 55.1603 19.6 55.1603 21.8154V27.7692C55.1603 28.3846 55.1603 29.1846 55.1603 30.1692C55.1911 31.1538 55.2373 32.1231 55.2988 33.0769C55.3603 34 55.4526 34.7385 55.5757 35.2923L55.4373 35.6615C54.4219 36.0308 53.2988 36.3692 52.068 36.6769C50.8373 36.9538 49.6065 37.1692 48.3757 37.3231C47.145 37.4769 46.0219 37.5538 45.0065 37.5538ZM69.7035 37.3692C67.5496 37.3692 65.7804 37.0308 64.3958 36.3538C63.0112 35.6769 61.9804 34.7077 61.3035 33.4462C60.6266 32.1538 60.2881 30.5846 60.2881 28.7385V5.15384H65.4573V28.2769C65.4573 29.9692 65.8266 31.1846 66.565 31.9231C67.3343 32.6615 68.5343 33.0308 70.165 33.0308C70.7804 33.0308 71.3804 32.9692 71.965 32.8462C72.5804 32.6923 73.1035 32.5231 73.5343 32.3385H73.9496V36.5846C73.4266 36.8 72.8112 36.9846 72.1035 37.1385C71.3958 37.2923 70.5958 37.3692 69.7035 37.3692ZM56.365 16.1846V11.8462H72.5189V16.1846H56.365ZM78.8856 7.6C78.024 7.6 77.2856 7.32308 76.6702 6.76923C76.0548 6.21538 75.7471 5.46154 75.7471 4.50769C75.7471 3.55384 76.0548 2.8 76.6702 2.24615C77.2856 1.69231 78.024 1.41538 78.8856 1.41538C79.8087 1.41538 80.5625 1.69231 81.1471 2.24615C81.7317 2.8 82.024 3.55384 82.024 4.50769C82.024 5.46154 81.7317 6.21538 81.1471 6.76923C80.5625 7.32308 79.8087 7.6 78.8856 7.6ZM76.301 37V19.7385C76.301 19.1231 76.2856 18.3385 76.2548 17.3846C76.2548 16.4 76.224 15.4308 76.1625 14.4769C76.1317 13.5231 76.0548 12.7692 75.9317 12.2154L76.024 11.8462H81.4702V37H76.301ZM85.2061 24.3538C85.2061 21.5538 85.6984 19.1846 86.6831 17.2462C87.6984 15.3077 89.0984 13.8308 90.8831 12.8154C92.6984 11.8 94.7754 11.2923 97.1138 11.2923C99.4523 11.2923 101.514 11.8 103.298 12.8154C105.083 13.8308 106.468 15.3077 107.452 17.2462C108.468 19.1846 108.975 21.5538 108.975 24.3538C108.975 27.1538 108.468 29.5231 107.452 31.4615C106.468 33.4 105.083 34.8769 103.298 35.8923C101.514 36.9077 99.4523 37.4154 97.1138 37.4154C94.7138 37.4154 92.6215 36.9077 90.8369 35.8923C89.0523 34.8769 87.6677 33.4 86.6831 31.4615C85.6984 29.5231 85.2061 27.1538 85.2061 24.3538ZM90.4677 24.3538C90.4677 27.2462 91.0369 29.4462 92.1754 30.9538C93.3138 32.4308 94.96 33.1692 97.1138 33.1692C99.2369 33.1692 100.868 32.4308 102.006 30.9538C103.145 29.4462 103.714 27.2462 103.714 24.3538C103.714 21.4 103.145 19.1846 102.006 17.7077C100.868 16.2308 99.2369 15.4923 97.1138 15.4923C94.96 15.4923 93.3138 16.2308 92.1754 17.7077C91.0369 19.1846 90.4677 21.4 90.4677 24.3538ZM112.725 37V21.1692C112.725 20.5538 112.709 19.7692 112.678 18.8154C112.678 17.8308 112.648 16.8615 112.586 15.9077C112.555 14.9538 112.478 14.2 112.355 13.6462L112.448 13.2769C113.309 12.9385 114.355 12.6154 115.586 12.3077C116.848 12 118.125 11.7538 119.417 11.5692C120.74 11.3846 121.925 11.2923 122.971 11.2923C124.54 11.2923 126.002 11.4615 127.355 11.8C128.709 12.1077 129.925 12.6769 131.002 13.5077C132.078 14.3077 132.909 15.4308 133.494 16.8769C134.109 18.2923 134.417 20.1077 134.417 22.3231V37H129.248V22.6462C129.248 20.7692 128.971 19.3231 128.417 18.3077C127.894 17.2923 127.109 16.6 126.063 16.2308C125.048 15.8308 123.832 15.6308 122.417 15.6308C121.463 15.6308 120.463 15.7385 119.417 15.9538C118.371 16.1692 117.448 16.4154 116.648 16.6923L117.478 15.2615C117.632 15.7231 117.74 16.3077 117.802 17.0154C117.863 17.7231 117.894 18.4923 117.894 19.3231V37H112.725Z" fill="white"/>
<path d="M200.426 37V3.76923H205.779V37H200.426ZM179.841 37V3.76923H185.195V37H179.841ZM182.887 22.1846V17.5692H202.733V22.1846H182.887ZM220.648 37.5538C216.955 37.5538 214.171 36.9077 212.294 35.6154C210.417 34.3231 209.478 32.3077 209.478 29.5692C209.478 27.7846 209.924 26.3077 210.817 25.1385C211.709 23.9692 212.971 23.0923 214.601 22.5077C216.232 21.9231 218.14 21.6308 220.324 21.6308C221.894 21.6308 223.217 21.7692 224.294 22.0462C225.371 22.2923 226.324 22.5385 227.155 22.7846V26.4308C226.417 26.1846 225.478 25.9692 224.34 25.7846C223.232 25.5692 222.186 25.4615 221.201 25.4615C218.924 25.4615 217.217 25.7692 216.078 26.3846C214.971 26.9692 214.417 28.0308 214.417 29.5692C214.417 31.0154 214.955 32.0615 216.032 32.7077C217.109 33.3231 218.663 33.6308 220.694 33.6308C221.863 33.6308 222.986 33.5385 224.063 33.3538C225.14 33.1385 226.14 32.8308 227.063 32.4308L226.186 33.9538C226.094 33.6462 226.017 33.3231 225.955 32.9846C225.894 32.6462 225.832 32.3077 225.771 31.9692C225.74 31.6 225.709 31.2 225.678 30.7692C225.678 30.3385 225.678 29.8462 225.678 29.2923V21.8154C225.678 20.0308 225.417 18.6923 224.894 17.8C224.401 16.8769 223.648 16.2769 222.632 16C221.617 15.6923 220.34 15.5385 218.801 15.5385C217.571 15.5385 216.34 15.6923 215.109 16C213.878 16.2769 212.894 16.5846 212.155 16.9231H211.74V12.5846C212.848 12.1538 214.078 11.8308 215.432 11.6154C216.817 11.4 218.155 11.2923 219.448 11.2923C221.078 11.2923 222.571 11.4308 223.924 11.7077C225.309 11.9846 226.509 12.5077 227.524 13.2769C228.571 14.0154 229.371 15.0769 229.924 16.4615C230.509 17.8154 230.801 19.6 230.801 21.8154V27.7692C230.801 28.3846 230.801 29.1846 230.801 30.1692C230.832 31.1538 230.878 32.1231 230.94 33.0769C231.001 34 231.094 34.7385 231.217 35.2923L231.078 35.6615C230.063 36.0308 228.94 36.3692 227.709 36.6769C226.478 36.9538 225.248 37.1692 224.017 37.3231C222.786 37.4769 221.663 37.5538 220.648 37.5538ZM234.114 24.3538C234.114 21.5231 234.683 19.1385 235.822 17.2C236.96 15.2615 238.56 13.8 240.622 12.8154C242.683 11.8 245.099 11.2923 247.868 11.2923C250.114 11.2923 252.006 11.6154 253.545 12.2615V16.6462H253.176C252.56 16.3385 251.822 16.0923 250.96 15.9077C250.099 15.7231 249.145 15.6308 248.099 15.6308C245.422 15.6308 243.299 16.3692 241.729 17.8462C240.16 19.2923 239.376 21.4615 239.376 24.3538C239.376 27.2154 240.16 29.3846 241.729 30.8615C243.299 32.3385 245.422 33.0769 248.099 33.0769C249.145 33.0769 250.099 32.9692 250.96 32.7538C251.822 32.5385 252.56 32.2923 253.176 32.0154H253.545V36.4462C252.006 37.0923 250.114 37.4154 247.868 37.4154C245.037 37.4154 242.591 36.9077 240.529 35.8923C238.468 34.8769 236.883 33.4 235.776 31.4615C234.668 29.5231 234.114 27.1538 234.114 24.3538ZM261.889 37H256.72V9.81538C256.72 9.2 256.704 8.4 256.673 7.41538C256.673 6.43077 256.643 5.47692 256.581 4.55385C256.55 3.6 256.473 2.84615 256.35 2.29231L256.443 1.92307H261.889V37ZM261.15 23.8462L272.227 11.8462H277.95V12.4C277.643 12.6462 277.289 12.9692 276.889 13.3692C276.489 13.7692 276.073 14.2 275.643 14.6615C275.212 15.0923 274.781 15.5231 274.35 15.9538L265.489 25.1846L265.535 22L274.443 32.3846C275.058 33.0923 275.72 33.8615 276.427 34.6923C277.166 35.4923 277.735 36.0769 278.135 36.4462V37H272.135L261.15 23.8462Z" fill="white"/>
<path d="M4.2 37V3.76923H8.58462L27.0462 23.1077V30.4L8.07692 10.5538L9.55385 9.95384V37H4.2ZM24.7846 37V3.76923H30.1385V37H24.7846ZM45.0065 37.5538C41.3142 37.5538 38.5296 36.9077 36.6526 35.6154C34.7757 34.3231 33.8373 32.3077 33.8373 29.5692C33.8373 27.7846 34.2834 26.3077 35.1757 25.1385C36.068 23.9692 37.3296 23.0923 38.9603 22.5077C40.5911 21.9231 42.4988 21.6308 44.6834 21.6308C46.2526 21.6308 47.5757 21.7692 48.6526 22.0462C49.7296 22.2923 50.6834 22.5385 51.5142 22.7846V26.4308C50.7757 26.1846 49.8373 25.9692 48.6988 25.7846C47.5911 25.5692 46.545 25.4615 45.5603 25.4615C43.2834 25.4615 41.5757 25.7692 40.4373 26.3846C39.3296 26.9692 38.7757 28.0308 38.7757 29.5692C38.7757 31.0154 39.3142 32.0615 40.3911 32.7077C41.468 33.3231 43.0219 33.6308 45.0526 33.6308C46.2219 33.6308 47.345 33.5385 48.4219 33.3538C49.4988 33.1385 50.4988 32.8308 51.4219 32.4308L50.545 33.9538C50.4526 33.6462 50.3757 33.3231 50.3142 32.9846C50.2526 32.6462 50.1911 32.3077 50.1296 31.9692C50.0988 31.6 50.068 31.2 50.0373 30.7692C50.0373 30.3385 50.0373 29.8462 50.0373 29.2923V21.8154C50.0373 20.0308 49.7757 18.6923 49.2526 17.8C48.7603 16.8769 48.0065 16.2769 46.9911 16C45.9757 15.6923 44.6988 15.5385 43.1603 15.5385C41.9296 15.5385 40.6988 15.6923 39.468 16C38.2373 16.2769 37.2526 16.5846 36.5142 16.9231H36.0988V12.5846C37.2065 12.1538 38.4373 11.8308 39.7911 11.6154C41.1757 11.4 42.5142 11.2923 43.8065 11.2923C45.4373 11.2923 46.9296 11.4308 48.2834 11.7077C49.668 11.9846 50.868 12.5077 51.8834 13.2769C52.9296 14.0154 53.7296 15.0769 54.2834 16.4615C54.868 17.8154 55.1603 19.6 55.1603 21.8154V27.7692C55.1603 28.3846 55.1603 29.1846 55.1603 30.1692C55.1911 31.1538 55.2373 32.1231 55.2988 33.0769C55.3603 34 55.4526 34.7385 55.5757 35.2923L55.4373 35.6615C54.4219 36.0308 53.2988 36.3692 52.068 36.6769C50.8373 36.9538 49.6065 37.1692 48.3757 37.3231C47.145 37.4769 46.0219 37.5538 45.0065 37.5538ZM69.7035 37.3692C67.5496 37.3692 65.7804 37.0308 64.3958 36.3538C63.0112 35.6769 61.9804 34.7077 61.3035 33.4462C60.6266 32.1538 60.2881 30.5846 60.2881 28.7385V5.15384H65.4573V28.2769C65.4573 29.9692 65.8266 31.1846 66.565 31.9231C67.3343 32.6615 68.5343 33.0308 70.165 33.0308C70.7804 33.0308 71.3804 32.9692 71.965 32.8462C72.5804 32.6923 73.1035 32.5231 73.5343 32.3385H73.9496V36.5846C73.4266 36.8 72.8112 36.9846 72.1035 37.1385C71.3958 37.2923 70.5958 37.3692 69.7035 37.3692ZM56.365 16.1846V11.8462H72.5189V16.1846H56.365ZM78.8856 7.6C78.024 7.6 77.2856 7.32308 76.6702 6.76923C76.0548 6.21538 75.7471 5.46154 75.7471 4.50769C75.7471 3.55384 76.0548 2.8 76.6702 2.24615C77.2856 1.69231 78.024 1.41538 78.8856 1.41538C79.8087 1.41538 80.5625 1.69231 81.1471 2.24615C81.7317 2.8 82.024 3.55384 82.024 4.50769C82.024 5.46154 81.7317 6.21538 81.1471 6.76923C80.5625 7.32308 79.8087 7.6 78.8856 7.6ZM76.301 37V19.7385C76.301 19.1231 76.2856 18.3385 76.2548 17.3846C76.2548 16.4 76.224 15.4308 76.1625 14.4769C76.1317 13.5231 76.0548 12.7692 75.9317 12.2154L76.024 11.8462H81.4702V37H76.301ZM85.2061 24.3538C85.2061 21.5538 85.6984 19.1846 86.6831 17.2462C87.6984 15.3077 89.0984 13.8308 90.8831 12.8154C92.6984 11.8 94.7754 11.2923 97.1138 11.2923C99.4523 11.2923 101.514 11.8 103.298 12.8154C105.083 13.8308 106.468 15.3077 107.452 17.2462C108.468 19.1846 108.975 21.5538 108.975 24.3538C108.975 27.1538 108.468 29.5231 107.452 31.4615C106.468 33.4 105.083 34.8769 103.298 35.8923C101.514 36.9077 99.4523 37.4154 97.1138 37.4154C94.7138 37.4154 92.6215 36.9077 90.8369 35.8923C89.0523 34.8769 87.6677 33.4 86.6831 31.4615C85.6984 29.5231 85.2061 27.1538 85.2061 24.3538ZM90.4677 24.3538C90.4677 27.2462 91.0369 29.4462 92.1754 30.9538C93.3138 32.4308 94.96 33.1692 97.1138 33.1692C99.2369 33.1692 100.868 32.4308 102.006 30.9538C103.145 29.4462 103.714 27.2462 103.714 24.3538C103.714 21.4 103.145 19.1846 102.006 17.7077C100.868 16.2308 99.2369 15.4923 97.1138 15.4923C94.96 15.4923 93.3138 16.2308 92.1754 17.7077C91.0369 19.1846 90.4677 21.4 90.4677 24.3538ZM112.725 37V21.1692C112.725 20.5538 112.709 19.7692 112.678 18.8154C112.678 17.8308 112.648 16.8615 112.586 15.9077C112.555 14.9538 112.478 14.2 112.355 13.6462L112.448 13.2769C113.309 12.9385 114.355 12.6154 115.586 12.3077C116.848 12 118.125 11.7538 119.417 11.5692C120.74 11.3846 121.925 11.2923 122.971 11.2923C124.54 11.2923 126.002 11.4615 127.355 11.8C128.709 12.1077 129.925 12.6769 131.002 13.5077C132.078 14.3077 132.909 15.4308 133.494 16.8769C134.109 18.2923 134.417 20.1077 134.417 22.3231V37H129.248V22.6462C129.248 20.7692 128.971 19.3231 128.417 18.3077C127.894 17.2923 127.109 16.6 126.063 16.2308C125.048 15.8308 123.832 15.6308 122.417 15.6308C121.463 15.6308 120.463 15.7385 119.417 15.9538C118.371 16.1692 117.448 16.4154 116.648 16.6923L117.478 15.2615C117.632 15.7231 117.74 16.3077 117.802 17.0154C117.863 17.7231 117.894 18.4923 117.894 19.3231V37H112.725Z" fill="white"/>
<path d="M200.426 37V3.76923H205.779V37H200.426ZM179.841 37V3.76923H185.195V37H179.841ZM182.887 22.1846V17.5692H202.733V22.1846H182.887ZM220.648 37.5538C216.955 37.5538 214.171 36.9077 212.294 35.6154C210.417 34.3231 209.478 32.3077 209.478 29.5692C209.478 27.7846 209.924 26.3077 210.817 25.1385C211.709 23.9692 212.971 23.0923 214.601 22.5077C216.232 21.9231 218.14 21.6308 220.324 21.6308C221.894 21.6308 223.217 21.7692 224.294 22.0462C225.371 22.2923 226.324 22.5385 227.155 22.7846V26.4308C226.417 26.1846 225.478 25.9692 224.34 25.7846C223.232 25.5692 222.186 25.4615 221.201 25.4615C218.924 25.4615 217.217 25.7692 216.078 26.3846C214.971 26.9692 214.417 28.0308 214.417 29.5692C214.417 31.0154 214.955 32.0615 216.032 32.7077C217.109 33.3231 218.663 33.6308 220.694 33.6308C221.863 33.6308 222.986 33.5385 224.063 33.3538C225.14 33.1385 226.14 32.8308 227.063 32.4308L226.186 33.9538C226.094 33.6462 226.017 33.3231 225.955 32.9846C225.894 32.6462 225.832 32.3077 225.771 31.9692C225.74 31.6 225.709 31.2 225.678 30.7692C225.678 30.3385 225.678 29.8462 225.678 29.2923V21.8154C225.678 20.0308 225.417 18.6923 224.894 17.8C224.401 16.8769 223.648 16.2769 222.632 16C221.617 15.6923 220.34 15.5385 218.801 15.5385C217.571 15.5385 216.34 15.6923 215.109 16C213.878 16.2769 212.894 16.5846 212.155 16.9231H211.74V12.5846C212.848 12.1538 214.078 11.8308 215.432 11.6154C216.817 11.4 218.155 11.2923 219.448 11.2923C221.078 11.2923 222.571 11.4308 223.924 11.7077C225.309 11.9846 226.509 12.5077 227.524 13.2769C228.571 14.0154 229.371 15.0769 229.924 16.4615C230.509 17.8154 230.801 19.6 230.801 21.8154V27.7692C230.801 28.3846 230.801 29.1846 230.801 30.1692C230.832 31.1538 230.878 32.1231 230.94 33.0769C231.001 34 231.094 34.7385 231.217 35.2923L231.078 35.6615C230.063 36.0308 228.94 36.3692 227.709 36.6769C226.478 36.9538 225.248 37.1692 224.017 37.3231C222.786 37.4769 221.663 37.5538 220.648 37.5538ZM234.114 24.3538C234.114 21.5231 234.683 19.1385 235.822 17.2C236.96 15.2615 238.56 13.8 240.622 12.8154C242.683 11.8 245.099 11.2923 247.868 11.2923C250.114 11.2923 252.006 11.6154 253.545 12.2615V16.6462H253.176C252.56 16.3385 251.822 16.0923 250.96 15.9077C250.099 15.7231 249.145 15.6308 248.099 15.6308C245.422 15.6308 243.299 16.3692 241.729 17.8462C240.16 19.2923 239.376 21.4615 239.376 24.3538C239.376 27.2154 240.16 29.3846 241.729 30.8615C243.299 32.3385 245.422 33.0769 248.099 33.0769C249.145 33.0769 250.099 32.9692 250.96 32.7538C251.822 32.5385 252.56 32.2923 253.176 32.0154H253.545V36.4462C252.006 37.0923 250.114 37.4154 247.868 37.4154C245.037 37.4154 242.591 36.9077 240.529 35.8923C238.468 34.8769 236.883 33.4 235.776 31.4615C234.668 29.5231 234.114 27.1538 234.114 24.3538ZM261.889 37H256.72V9.81538C256.72 9.2 256.704 8.4 256.673 7.41538C256.673 6.43077 256.643 5.47692 256.581 4.55385C256.55 3.6 256.473 2.84615 256.35 2.29231L256.443 1.92307H261.889V37ZM261.15 23.8462L272.227 11.8462H277.95V12.4C277.643 12.6462 277.289 12.9692 276.889 13.3692C276.489 13.7692 276.073 14.2 275.643 14.6615C275.212 15.0923 274.781 15.5231 274.35 15.9538L265.489 25.1846L265.535 22L274.443 32.3846C275.058 33.0923 275.72 33.8615 276.427 34.6923C277.166 35.4923 277.735 36.0769 278.135 36.4462V37H272.135L261.15 23.8462Z" fill="white"/>
<defs>
<clipPath id="clip0_2602_123">
<rect width="36.0606" height="34" fill="white" transform="translate(139 3)"/>
</clipPath>
<clipPath id="clip1_2602_123">
<rect width="35.0303" height="34" fill="white" transform="translate(139.517 2.48438)"/>
</clipPath>
<clipPath id="clip2_2602_123">
<rect width="35.0303" height="34" fill="white" transform="translate(139.517 2.48438)"/>
</clipPath>
<clipPath id="clip3_2602_123">
<rect width="36.0606" height="34" fill="white" transform="translate(139 3)"/>
</clipPath>
<clipPath id="clip4_2602_123">
<rect width="35.0303" height="34" fill="white" transform="translate(139.517 2.48438)"/>
</clipPath>
<clipPath id="clip5_2602_123">
<rect width="35.0303" height="34" fill="white" transform="translate(139.517 2.48438)"/>
</clipPath>
</defs>
</svg>
